<svg width="95" height="80" viewBox="0 0 95 80" fill="none" xmlns="http://www.w3.org/2000/svg">
<g filter="url(#filter0_bd_123_222)">
<mask id="path-1-outside-1_123_222" maskUnits="userSpaceOnUse" x="45.5" y="11" width="35" height="33" fill="black">
<rect fill="white" x="45.5" y="11" width="35" height="33"/>
<path fill-rule="evenodd" clip-rule="evenodd" d="M69.5109 25.9298C69.5109 26.3812 69.4959 26.8271 69.4666 27.2666C70.3714 26.0559 71.5531 25.323 72.8459 25.323C75.6924 25.323 78 28.8757 78 33.2583C78 37.6408 75.6924 41.1935 72.8459 41.1935H52.8057H52.7753V41.1934C49.8591 41.1683 47.5 37.5207 47.5 33.0249C47.5 28.5456 49.8418 24.9083 52.7432 24.8568C53.0975 18.2179 56.7094 13 61.1128 13C65.751 13 69.5109 18.7889 69.5109 25.9298Z"/>
</mask>
<path fill-rule="evenodd" clip-rule="evenodd" d="M69.5109 25.9298C69.5109 26.3812 69.4959 26.8271 69.4666 27.2666C70.3714 26.0559 71.5531 25.323 72.8459 25.323C75.6924 25.323 78 28.8757 78 33.2583C78 37.6408 75.6924 41.1935 72.8459 41.1935H52.8057H52.7753V41.1934C49.8591 41.1683 47.5 37.5207 47.5 33.0249C47.5 28.5456 49.8418 24.9083 52.7432 24.8568C53.0975 18.2179 56.7094 13 61.1128 13C65.751 13 69.5109 18.7889 69.5109 25.9298Z" fill="url(#paint0_linear_123_222)" shape-rendering="crispEdges"/>
<path d="M69.4666 27.2666L67.471 27.1334L67.021 33.8798L71.0686 28.4638L69.4666 27.2666ZM52.7753 41.1935H50.7753V43.1935H52.7753V41.1935ZM52.7753 41.1934H54.7753V39.2106L52.7926 39.1935L52.7753 41.1934ZM52.7432 24.8568L52.7787 26.8565L54.6411 26.8234L54.7404 24.9634L52.7432 24.8568ZM71.4622 27.3997C71.4944 26.9159 71.5109 26.4255 71.5109 25.9298H67.5109C67.5109 26.3368 67.4974 26.7384 67.471 27.1334L71.4622 27.3997ZM72.8459 23.323C70.7382 23.323 69.0211 24.5218 67.8646 26.0693L71.0686 28.4638C71.7217 27.59 72.368 27.323 72.8459 27.323V23.323ZM80 33.2583C80 30.7375 79.3402 28.363 78.1677 26.5578C77.0076 24.7717 75.1706 23.323 72.8459 23.323V27.323C73.3678 27.323 74.1078 27.6506 74.8131 28.7366C75.5061 29.8034 76 31.3965 76 33.2583H80ZM72.8459 43.1935C75.1706 43.1935 77.0076 41.7448 78.1677 39.9588C79.3402 38.1536 80 35.779 80 33.2583H76C76 35.1201 75.5061 36.7131 74.8131 37.78C74.1078 38.8659 73.3678 39.1935 72.8459 39.1935V43.1935ZM72.8459 39.1935H52.8057V43.1935H72.8459V39.1935ZM52.8057 39.1935H52.7753V43.1935H52.8057V39.1935ZM54.7753 41.1935V41.1934H50.7753V41.1935H54.7753ZM45.5 33.0249C45.5 35.6014 46.1722 38.0262 47.3642 39.871C48.5434 41.6962 50.4044 43.1731 52.7581 43.1933L52.7926 39.1935C52.23 39.1886 51.4533 38.8292 50.7239 37.7003C50.0073 36.5911 49.5 34.9443 49.5 33.0249H45.5ZM52.7077 22.8571C50.3677 22.8986 48.5215 24.3775 47.3509 26.1993C46.1674 28.0414 45.5 30.4576 45.5 33.0249H49.5C49.5 31.1128 50.0035 29.4708 50.7162 28.3615C51.4419 27.232 52.2172 26.8664 52.7787 26.8565L52.7077 22.8571ZM61.1128 11C58.0574 11 55.5113 12.812 53.7724 15.29C52.0262 17.7784 50.9398 21.1187 50.7461 24.7502L54.7404 24.9634C54.9009 21.956 55.7975 19.3678 57.0467 17.5876C58.3033 15.7969 59.7648 15 61.1128 15V11ZM71.5109 25.9298C71.5109 22.0299 70.488 18.4067 68.7284 15.6977C66.9813 13.0078 64.3333 11 61.1128 11V15C62.5305 15 64.0815 15.8867 65.3739 17.8765C66.6539 19.8471 67.5109 22.6888 67.5109 25.9298H71.5109Z" fill="url(#paint1_linear_123_222)" mask="url(#path-1-outside-1_123_222)"/>
</g>
<g filter="url(#filter1_bd_123_222)">
<mask id="path-3-outside-2_123_222" maskUnits="userSpaceOnUse" x="15" y="12.4839" width="55" height="49" fill="black">
<rect fill="white" x="15" y="12.4839" width="55" height="49"/>
<path fill-rule="evenodd" clip-rule="evenodd" d="M53.0979 34.8994C53.0979 35.6121 53.0733 36.3162 53.0252 37.01C54.5091 35.0985 56.447 33.9413 58.5673 33.9413C63.2356 33.9413 67.02 39.5509 67.02 46.4706C67.02 53.3904 63.2356 59 58.5673 59H25.7081C25.7058 59 25.7035 59 25.7013 59C25.699 59 25.6968 59 25.6945 59H25.6516V58.9998C20.8689 58.9601 17 53.2009 17 46.1021C17 39.0295 20.8405 33.2865 25.5989 33.2051C26.1798 22.7226 32.1034 14.4839 39.325 14.4839C46.9316 14.4839 53.0979 23.6242 53.0979 34.8994Z"/>
</mask>
<path fill-rule="evenodd" clip-rule="evenodd" d="M53.0979 34.8994C53.0979 35.6121 53.0733 36.3162 53.0252 37.01C54.5091 35.0985 56.447 33.9413 58.5673 33.9413C63.2356 33.9413 67.02 39.5509 67.02 46.4706C67.02 53.3904 63.2356 59 58.5673 59H25.7081C25.7058 59 25.7035 59 25.7013 59C25.699 59 25.6968 59 25.6945 59H25.6516V58.9998C20.8689 58.9601 17 53.2009 17 46.1021C17 39.0295 20.8405 33.2865 25.5989 33.2051C26.1798 22.7226 32.1034 14.4839 39.325 14.4839C46.9316 14.4839 53.0979 23.6242 53.0979 34.8994Z" fill="url(#paint2_linear_123_222)" shape-rendering="crispEdges"/>
<path d="M53.0252 37.01L51.03 36.8718L50.5758 43.4271L54.6051 38.2364L53.0252 37.01ZM25.6516 59H23.6516V61H25.6516V59ZM25.6516 58.9998H27.6516V57.0163L25.6682 56.9999L25.6516 58.9998ZM25.5989 33.2051L25.6331 35.2048L27.4929 35.173L27.5958 33.3158L25.5989 33.2051ZM55.0204 37.1483C55.0717 36.4084 55.0979 35.6581 55.0979 34.8994H51.0979C51.0979 35.566 51.0749 36.224 51.03 36.8718L55.0204 37.1483ZM58.5673 31.9413C55.6649 31.9413 53.1944 33.5304 51.4453 35.7836L54.6051 38.2364C55.8237 36.6665 57.2292 35.9413 58.5673 35.9413V31.9413ZM69.02 46.4706C69.02 42.6662 67.9832 39.1324 66.2022 36.4925C64.4293 33.8645 61.7671 31.9413 58.5673 31.9413V35.9413C60.0358 35.9413 61.5999 36.8228 62.8863 38.7296C64.1646 40.6244 65.02 43.3553 65.02 46.4706H69.02ZM58.5673 61C61.7671 61 64.4293 59.0768 66.2022 56.4488C67.9832 53.8089 69.02 50.2751 69.02 46.4706H65.02C65.02 49.5859 64.1646 52.3169 62.8863 54.2117C61.5999 56.1184 60.0358 57 58.5673 57V61ZM58.5673 57H25.7081V61H58.5673V57ZM25.7013 61C25.7034 61 25.7054 61 25.7064 61C25.707 61 25.7073 61 25.7076 61C25.7078 61 25.7079 61 25.708 61C25.708 61 25.708 61 25.708 61C25.708 61 25.708 61 25.708 61C25.7081 61 25.7081 61 25.7081 61V57C25.7059 57 25.704 57 25.703 57C25.7017 57 25.7014 57 25.7013 57V61ZM25.6945 61C25.6945 61 25.6945 61 25.6945 61C25.6945 61 25.6945 61 25.6946 61C25.6946 61 25.6946 61 25.6946 61C25.6947 61 25.6948 61 25.6949 61C25.6953 61 25.6956 61 25.6962 61C25.6972 61 25.6992 61 25.7013 61V57C25.7011 57 25.7009 57 25.6996 57C25.6986 57 25.6966 57 25.6945 57V61ZM25.6945 57H25.6516V61H25.6945V57ZM27.6516 59V58.9998H23.6516V59H27.6516ZM15 46.1021C15 49.9951 16.0574 53.6092 17.8716 56.3126C19.6774 59.0035 22.3833 60.9728 25.635 60.9997L25.6682 56.9999C24.1372 56.9872 22.5172 56.057 21.193 54.0836C19.8771 52.1228 19 49.3079 19 46.1021H15ZM25.5647 31.2054C22.3309 31.2607 19.6445 33.2348 17.8515 35.9217C16.0497 38.6216 15 42.2233 15 46.1021H19C19 42.9084 19.8705 40.1022 21.1786 38.1421C22.4954 36.169 24.1085 35.2309 25.6331 35.2048L25.5647 31.2054ZM39.325 12.4839C34.8946 12.4839 31.0675 15.0146 28.3554 18.7356C25.6398 22.4615 23.9105 27.5268 23.6019 33.0944L27.5958 33.3158C27.8682 28.4009 29.3912 24.1056 31.588 21.0916C33.7883 18.0726 36.5337 16.4839 39.325 16.4839V12.4839ZM55.0979 34.8994C55.0979 28.9172 53.4656 23.4119 50.7219 19.3449C47.9862 15.2898 43.994 12.4839 39.325 12.4839V16.4839C42.2626 16.4839 45.1569 18.2481 47.406 21.582C49.647 24.9039 51.0979 29.6064 51.0979 34.8994H55.0979Z" fill="url(#paint3_linear_123_222)" mask="url(#path-3-outside-2_123_222)"/>
</g>
<defs>
<filter id="filter0_bd_123_222" x="30.5" y="0" width="64.5" height="62.1935" filterUnits="userSpaceOnUse" color-interpolation-filters="sRGB">
<feFlood flood-opacity="0" result="BackgroundImageFix"/>
<feGaussianBlur in="BackgroundImageFix" stdDeviation="5"/>
<feComposite in2="SourceAlpha" operator="in" result="effect1_backgroundBlur_123_222"/>
<feColorMatrix in="SourceAlpha" type="matrix" values="0 0 0 0 0 0 0 0 0 0 0 0 0 0 0 0 0 0 127 0" result="hardAlpha"/>
<feOffset dy="4"/>
<feGaussianBlur stdDeviation="7.5"/>
<feComposite in2="hardAlpha" operator="out"/>
<feColorMatrix type="matrix" values="0 0 0 0 0 0 0 0 0 0 0 0 0 0 0 0 0 0 0.1 0"/>
<feBlend mode="normal" in2="effect1_backgroundBlur_123_222" result="effect2_dropShadow_123_222"/>
<feBlend mode="normal" in="SourceGraphic" in2="effect2_dropShadow_123_222" result="shape"/>
</filter>
<filter id="filter1_bd_123_222" x="0" y="1.48389" width="84.02" height="78.5161" filterUnits="userSpaceOnUse" color-interpolation-filters="sRGB">
<feFlood flood-opacity="0" result="BackgroundImageFix"/>
<feGaussianBlur in="BackgroundImageFix" stdDeviation="5"/>
<feComposite in2="SourceAlpha" operator="in" result="effect1_backgroundBlur_123_222"/>
<feColorMatrix in="SourceAlpha" type="matrix" values="0 0 0 0 0 0 0 0 0 0 0 0 0 0 0 0 0 0 127 0" result="hardAlpha"/>
<feOffset dy="4"/>
<feGaussianBlur stdDeviation="7.5"/>
<feComposite in2="hardAlpha" operator="out"/>
<feColorMatrix type="matrix" values="0 0 0 0 0 0 0 0 0 0 0 0 0 0 0 0 0 0 0.1 0"/>
<feBlend mode="normal" in2="effect1_backgroundBlur_123_222" result="effect2_dropShadow_123_222"/>
<feBlend mode="normal" in="SourceGraphic" in2="effect2_dropShadow_123_222" result="shape"/>
</filter>
<linearGradient id="paint0_linear_123_222" x1="56.9797" y1="12.8824" x2="71.6324" y2="36.8357" gradientUnits="userSpaceOnUse">
<stop stop-color="white"/>
<stop offset="0.708333" stop-color="#9DDCFF" stop-opacity="0.69"/>
</linearGradient>
<linearGradient id="paint1_linear_123_222" x1="61.7608" y1="3.23697" x2="83.1437" y2="47.2738" gradientUnits="userSpaceOnUse">
<stop stop-color="white"/>
<stop offset="0.713542" stop-color="#85C6EC" stop-opacity="0.71"/>
</linearGradient>
<linearGradient id="paint2_linear_123_222" x1="32.5468" y1="14.2982" x2="55.2735" y2="52.8869" gradientUnits="userSpaceOnUse">
<stop stop-color="white"/>
<stop offset="0.708333" stop-color="#9DDCFF" stop-opacity="0.69"/>
</linearGradient>
<linearGradient id="paint3_linear_123_222" x1="40.3877" y1="-0.931416" x2="73.3529" y2="69.5834" gradientUnits="userSpaceOnUse">
<stop stop-color="white"/>
<stop offset="0.713542" stop-color="#85C6EC" stop-opacity="0.71"/>
</linearGradient>
</defs>
</svg>
