<svg width="95" height="80" viewBox="0 0 95 80" fill="none" xmlns="http://www.w3.org/2000/svg">
<g filter="url(#filter0_bd_124_37)">
<mask id="path-1-outside-1_124_37" maskUnits="userSpaceOnUse" x="45.5" y="17.7648" width="35" height="36" fill="black">
<rect fill="white" x="45.5" y="17.7648" width="35" height="36"/>
<path fill-rule="evenodd" clip-rule="evenodd" d="M69.5109 34.0356C69.5109 34.5338 69.4959 35.026 69.4666 35.511C70.3714 34.1748 71.5531 33.3659 72.8459 33.3659C75.6924 33.3659 78 37.2871 78 42.1241C78 46.9612 75.6924 50.8824 72.8459 50.8824H52.8106C52.809 50.8824 52.8073 50.8824 52.8057 50.8824C52.804 50.8824 52.8024 50.8824 52.8007 50.8824H52.7753V50.8823C49.8591 50.8545 47.5 46.8287 47.5 41.8665C47.5 36.9226 49.8418 32.9081 52.7432 32.8513C53.0975 25.5238 56.7094 19.7648 61.1128 19.7648C65.751 19.7648 69.5109 26.154 69.5109 34.0356Z"/>
</mask>
<path fill-rule="evenodd" clip-rule="evenodd" d="M69.5109 34.0356C69.5109 34.5338 69.4959 35.026 69.4666 35.511C70.3714 34.1748 71.5531 33.3659 72.8459 33.3659C75.6924 33.3659 78 37.2871 78 42.1241C78 46.9612 75.6924 50.8824 72.8459 50.8824H52.8106C52.809 50.8824 52.8073 50.8824 52.8057 50.8824C52.804 50.8824 52.8024 50.8824 52.8007 50.8824H52.7753V50.8823C49.8591 50.8545 47.5 46.8287 47.5 41.8665C47.5 36.9226 49.8418 32.9081 52.7432 32.8513C53.0975 25.5238 56.7094 19.7648 61.1128 19.7648C65.751 19.7648 69.5109 26.154 69.5109 34.0356Z" fill="url(#paint0_linear_124_37)" shape-rendering="crispEdges"/>
<path d="M69.4666 35.511L67.4702 35.3903L67.0298 42.6767L71.1227 36.6323L69.4666 35.511ZM52.7753 50.8824H50.7753V52.8824H52.7753V50.8824ZM52.7753 50.8823H54.7753V48.9012L52.7944 48.8824L52.7753 50.8823ZM52.7432 32.8513L52.7824 34.8509L54.6507 34.8143L54.7409 32.9479L52.7432 32.8513ZM71.463 35.6316C71.4947 35.1064 71.5109 34.574 71.5109 34.0356H67.5109C67.5109 34.4936 67.4971 34.9456 67.4702 35.3903L71.463 35.6316ZM72.8459 31.3659C70.6488 31.3659 68.9284 32.7388 67.8105 34.3896L71.1227 36.6323C71.8144 35.6108 72.4573 35.3659 72.8459 35.3659V31.3659ZM80 42.1241C80 39.4122 79.3573 36.8594 78.2141 34.9167C77.098 33.0202 75.267 31.3659 72.8459 31.3659V35.3659C73.2713 35.3659 74.0174 35.6721 74.7667 36.9455C75.4889 38.1727 76 39.999 76 42.1241H80ZM72.8459 52.8824C75.267 52.8824 77.098 51.2281 78.2141 49.3315C79.3573 47.3889 80 44.8361 80 42.1241H76C76 44.2492 75.4889 46.0756 74.7667 47.3028C74.0174 48.5761 73.2713 48.8824 72.8459 48.8824V52.8824ZM72.8459 48.8824H52.8106V52.8824H72.8459V48.8824ZM52.8057 52.8824C52.8078 52.8824 52.8098 52.8824 52.8105 52.8824C52.8115 52.8824 52.8111 52.8824 52.8106 52.8824V48.8824C52.8084 48.8824 52.8064 48.8824 52.8058 48.8824C52.8048 48.8824 52.8051 48.8824 52.8057 48.8824V52.8824ZM52.8007 52.8824C52.8002 52.8824 52.7999 52.8824 52.8009 52.8824C52.8015 52.8824 52.8035 52.8824 52.8057 52.8824V48.8824C52.8062 48.8824 52.8065 48.8824 52.8055 48.8824C52.8049 48.8824 52.8029 48.8824 52.8007 48.8824V52.8824ZM52.8007 48.8824H52.7753V52.8824H52.8007V48.8824ZM54.7753 50.8824V50.8823H50.7753V50.8824H54.7753ZM45.5 41.8665C45.5 44.6403 46.1552 47.2488 47.3181 49.2352C48.4537 51.1751 50.3078 52.8589 52.7563 52.8822L52.7944 48.8824C52.3267 48.8779 51.5431 48.5349 50.7701 47.2144C50.0243 45.9405 49.5 44.0549 49.5 41.8665H45.5ZM52.704 30.8517C50.2709 30.8994 48.4324 32.5836 47.3051 34.5201C46.1505 36.5035 45.5 39.1027 45.5 41.8665H49.5C49.5 39.6865 50.0204 37.8065 50.762 36.5325C51.531 35.2115 52.3141 34.8601 52.7824 34.8509L52.704 30.8517ZM61.1128 17.7648C57.9648 17.7648 55.4194 19.8171 53.7218 22.4872C52.0039 25.1892 50.9361 28.8131 50.7456 32.7547L54.7409 32.9479C54.9046 29.562 55.8198 26.6426 57.0973 24.6333C58.3952 22.592 59.8574 21.7648 61.1128 21.7648V17.7648ZM71.5109 34.0356C71.5109 29.8014 70.5051 25.8705 68.7749 22.9302C67.0717 20.0361 64.4297 17.7648 61.1128 17.7648V21.7648C62.4341 21.7648 63.9911 22.6881 65.3275 24.959C66.6367 27.1838 67.5109 30.3883 67.5109 34.0356H71.5109Z" fill="url(#paint1_linear_124_37)" mask="url(#path-1-outside-1_124_37)"/>
</g>
<g filter="url(#filter1_bd_124_37)">
<mask id="path-3-outside-2_124_37" maskUnits="userSpaceOnUse" x="15" y="11" width="50" height="50" fill="black">
<rect fill="white" x="15" y="11" width="50" height="50"/>
<path fill-rule="evenodd" clip-rule="evenodd" d="M49.6369 34.096C49.6369 34.8324 49.6146 35.56 49.5712 36.277C50.9127 34.3017 52.6649 33.106 54.5819 33.106C58.8026 33.106 62.2241 38.9025 62.2241 46.053C62.2241 53.2034 58.8026 59 54.5819 59H24.873C24.871 59 24.869 59 24.867 59C24.865 59 24.863 59 24.861 59H24.8221V58.9998C20.4979 58.9588 17 53.0075 17 45.6722C17 38.3638 20.4723 32.4293 24.7744 32.3453C25.2997 21.5134 30.6553 13 37.1845 13C44.0618 13 49.6369 22.445 49.6369 34.096Z"/>
</mask>
<path fill-rule="evenodd" clip-rule="evenodd" d="M49.6369 34.096C49.6369 34.8324 49.6146 35.56 49.5712 36.277C50.9127 34.3017 52.6649 33.106 54.5819 33.106C58.8026 33.106 62.2241 38.9025 62.2241 46.053C62.2241 53.2034 58.8026 59 54.5819 59H24.873C24.871 59 24.869 59 24.867 59C24.865 59 24.863 59 24.861 59H24.8221V58.9998C20.4979 58.9588 17 53.0075 17 45.6722C17 38.3638 20.4723 32.4293 24.7744 32.3453C25.2997 21.5134 30.6553 13 37.1845 13C44.0618 13 49.6369 22.445 49.6369 34.096Z" fill="url(#paint2_linear_124_37)" shape-rendering="crispEdges"/>
<path d="M49.5712 36.277L47.5748 36.156L47.1342 43.4248L51.2256 37.4007L49.5712 36.277ZM24.8221 59H22.8221V61H24.8221V59ZM24.8221 58.9998H26.8221V57.0187L24.841 56.9999L24.8221 58.9998ZM24.7744 32.3453L24.8135 34.3449L26.6816 34.3084L26.7721 32.4422L24.7744 32.3453ZM51.5675 36.398C51.6134 35.6407 51.6369 34.8727 51.6369 34.096H47.6369C47.6369 34.7921 47.6158 35.4794 47.5748 36.156L51.5675 36.398ZM54.5819 31.106C51.7635 31.106 49.4726 32.8625 47.9167 35.1533L51.2256 37.4007C52.3529 35.741 53.5663 35.106 54.5819 35.106V31.106ZM64.2241 46.053C64.2241 42.1833 63.3025 38.5825 61.7081 35.8814C60.1403 33.2254 57.687 31.106 54.5819 31.106V35.106C55.6974 35.106 57.0653 35.8848 58.2634 37.9147C59.435 39.8995 60.2241 42.7722 60.2241 46.053H64.2241ZM54.5819 61C57.687 61 60.1403 58.8806 61.7081 56.2245C63.3025 53.5235 64.2241 49.9227 64.2241 46.053H60.2241C60.2241 49.3337 59.435 52.2064 58.2634 54.1913C57.0653 56.2212 55.6974 57 54.5819 57V61ZM54.5819 57H24.873V61H54.5819V57ZM24.867 61C24.8691 61 24.8711 61 24.8719 61C24.8731 61 24.8731 61 24.873 61V57C24.8709 57 24.869 57 24.8681 57C24.867 57 24.8669 57 24.867 57V61ZM24.861 61C24.8609 61 24.8609 61 24.8621 61C24.863 61 24.8649 61 24.867 61V57C24.8671 57 24.8671 57 24.8659 57C24.8651 57 24.8631 57 24.861 57V61ZM24.861 57H24.8221V61H24.861V57ZM26.8221 59V58.9998H22.8221V59H26.8221ZM15 45.6722C15 49.6336 15.9404 53.3175 17.5648 56.084C19.1625 58.8051 21.6536 60.9698 24.8031 60.9997L24.841 56.9999C23.6664 56.9887 22.2464 56.1574 21.0141 54.0587C19.8086 52.0055 19 49.0461 19 45.6722H15ZM24.7354 30.3457C21.6048 30.4068 19.1331 32.5743 17.5468 35.2911C15.9336 38.0539 15 41.7251 15 45.6722H19C19 42.3109 19.8025 39.3607 21.001 37.3081C22.2263 35.2096 23.6419 34.3678 24.8135 34.3449L24.7354 30.3457ZM37.1845 11C32.9765 11 29.4636 13.7375 27.0417 17.5353C24.5999 21.3643 23.0529 26.5536 22.7768 32.2484L26.7721 32.4422C27.0212 27.305 28.4146 22.8217 30.4143 19.686C32.4338 16.5192 34.8633 15 37.1845 15V11ZM51.6369 34.096C51.6369 27.976 50.1768 22.338 47.712 18.1622C45.2738 14.0316 41.618 11 37.1845 11V15C39.6284 15 42.1987 16.6909 44.2673 20.1955C46.3094 23.655 47.6369 28.565 47.6369 34.096H51.6369Z" fill="url(#paint3_linear_124_37)" mask="url(#path-3-outside-2_124_37)"/>
</g>
<defs>
<filter id="filter0_bd_124_37" x="30.5" y="6.76477" width="64.5" height="65.1177" filterUnits="userSpaceOnUse" color-interpolation-filters="sRGB">
<feFlood flood-opacity="0" result="BackgroundImageFix"/>
<feGaussianBlur in="BackgroundImageFix" stdDeviation="5"/>
<feComposite in2="SourceAlpha" operator="in" result="effect1_backgroundBlur_124_37"/>
<feColorMatrix in="SourceAlpha" type="matrix" values="0 0 0 0 0 0 0 0 0 0 0 0 0 0 0 0 0 0 127 0" result="hardAlpha"/>
<feOffset dy="4"/>
<feGaussianBlur stdDeviation="7.5"/>
<feComposite in2="hardAlpha" operator="out"/>
<feColorMatrix type="matrix" values="0 0 0 0 0 0 0 0 0 0 0 0 0 0 0 0 0 0 0.1 0"/>
<feBlend mode="normal" in2="effect1_backgroundBlur_124_37" result="effect2_dropShadow_124_37"/>
<feBlend mode="normal" in="SourceGraphic" in2="effect2_dropShadow_124_37" result="shape"/>
</filter>
<filter id="filter1_bd_124_37" x="0" y="0" width="79.2241" height="80" filterUnits="userSpaceOnUse" color-interpolation-filters="sRGB">
<feFlood flood-opacity="0" result="BackgroundImageFix"/>
<feGaussianBlur in="BackgroundImageFix" stdDeviation="5"/>
<feComposite in2="SourceAlpha" operator="in" result="effect1_backgroundBlur_124_37"/>
<feColorMatrix in="SourceAlpha" type="matrix" values="0 0 0 0 0 0 0 0 0 0 0 0 0 0 0 0 0 0 127 0" result="hardAlpha"/>
<feOffset dy="4"/>
<feGaussianBlur stdDeviation="7.5"/>
<feComposite in2="hardAlpha" operator="out"/>
<feColorMatrix type="matrix" values="0 0 0 0 0 0 0 0 0 0 0 0 0 0 0 0 0 0 0.1 0"/>
<feBlend mode="normal" in2="effect1_backgroundBlur_124_37" result="effect2_dropShadow_124_37"/>
<feBlend mode="normal" in="SourceGraphic" in2="effect2_dropShadow_124_37" result="shape"/>
</filter>
<linearGradient id="paint0_linear_124_37" x1="57.1771" y1="22.9699" x2="75.5957" y2="40.6259" gradientUnits="userSpaceOnUse">
<stop stop-color="#508ABF"/>
<stop offset="1" stop-color="#2073A2" stop-opacity="0.53"/>
</linearGradient>
<linearGradient id="paint1_linear_124_37" x1="67.0337" y1="61.2244" x2="44.3973" y2="23.652" gradientUnits="userSpaceOnUse">
<stop stop-color="#4195C6"/>
<stop offset="1" stop-color="#5E8398" stop-opacity="0.56"/>
<stop offset="1" stop-color="#AFE2FF" stop-opacity="0.5"/>
</linearGradient>
<linearGradient id="paint2_linear_124_37" x1="31.0561" y1="12.8082" x2="55.9345" y2="49.7681" gradientUnits="userSpaceOnUse">
<stop stop-color="white"/>
<stop offset="0.708333" stop-color="#9DDCFF" stop-opacity="0.69"/>
</linearGradient>
<linearGradient id="paint3_linear_124_37" x1="38.1453" y1="-2.92915" x2="75.0505" y2="66.1422" gradientUnits="userSpaceOnUse">
<stop stop-color="white"/>
<stop offset="0.713542" stop-color="#85C6EC" stop-opacity="0.71"/>
</linearGradient>
</defs>
</svg>
