<svg width="47" height="45" viewBox="0 0 47 45" fill="none" xmlns="http://www.w3.org/2000/svg">
<rect opacity="0.5" width="47" height="45" rx="22.5" fill="url(#paint0_linear_230_110)"/>
<g clip-path="url(#clip0_230_110)">
<path d="M23.5 11.6448C19.1123 11.6448 15.5636 15.0425 15.5636 19.2435C15.5636 24.9425 23.5 33.3553 23.5 33.3553C23.5 33.3553 31.4364 24.9425 31.4364 19.2435C31.4364 15.0425 27.8877 11.6448 23.5 11.6448ZM17.8311 19.2435C17.8311 16.2474 20.3708 13.8158 23.5 13.8158C26.6292 13.8158 29.1689 16.2474 29.1689 19.2435C29.1689 22.3698 25.9036 27.0484 23.5 29.9685C21.1418 27.0701 17.8311 22.3372 17.8311 19.2435Z" fill="white"/>
<path d="M23.5001 21.9573C25.0655 21.9573 26.3345 20.7423 26.3345 19.2435C26.3345 17.7447 25.0655 16.5296 23.5001 16.5296C21.9347 16.5296 20.6656 17.7447 20.6656 19.2435C20.6656 20.7423 21.9347 21.9573 23.5001 21.9573Z" fill="white"/>
</g>
<defs>
<linearGradient id="paint0_linear_230_110" x1="23.5" y1="0" x2="23.5" y2="45" gradientUnits="userSpaceOnUse">
<stop stop-color="#957DCD"/>
<stop offset="1" stop-color="#523D7F"/>
</linearGradient>
<clipPath id="clip0_230_110">
<rect width="27.2105" height="26.0526" fill="white" transform="translate(9.89478 9.47372)"/>
</clipPath>
</defs>
</svg>
