<svg width="23" height="21" viewBox="0 0 23 21" fill="none" xmlns="http://www.w3.org/2000/svg">
<g clip-path="url(#clip0_230_108)">
<path d="M9.07422 0.820312C11.2426 0.820313 13.3221 1.60678 14.8554 3.00671C16.3886 4.40664 17.25 6.30536 17.25 8.28516C17.25 10.1341 16.5079 11.8338 15.2878 13.143L15.6274 13.4531H16.6211L22.9102 19.1953L21.0234 20.918L14.7344 15.1758V14.2685L14.3948 13.9584C12.9609 15.0724 11.0993 15.75 9.07422 15.75C6.90587 15.75 4.82632 14.9635 3.29307 13.5636C1.75981 12.1637 0.898438 10.265 0.898438 8.28516C0.898438 6.30536 1.75981 4.40664 3.29307 3.00671C4.82632 1.60678 6.90587 0.820313 9.07422 0.820312ZM9.07422 3.11719C5.92969 3.11719 3.41406 5.41406 3.41406 8.28516C3.41406 11.1562 5.92969 13.4531 9.07422 13.4531C12.2188 13.4531 14.7344 11.1562 14.7344 8.28516C14.7344 5.41406 12.2188 3.11719 9.07422 3.11719Z" fill="white"/>
</g>
<defs>
<clipPath id="clip0_230_108">
<rect width="23" height="21" fill="white"/>
</clipPath>
</defs>
</svg>
